<svg width="117" height="33" viewBox="0 0 117 33" fill="none" xmlns="http://www.w3.org/2000/svg">
<g filter="url(#filter0_d_201_4)">
<path d="M21.392 1.6C21.904 1.6 22.32 1.77067 22.64 2.112C22.96 2.45333 23.12 2.88 23.12 3.392V22.048C23.12 22.6027 22.928 23.072 22.544 23.456C22.1813 23.8187 21.7227 24 21.168 24C20.8907 24 20.6027 23.9573 20.304 23.872C20.0267 23.7653 19.8133 23.6267 19.664 23.456L7.088 7.488L7.92 6.976V22.208C7.92 22.72 7.74933 23.1467 7.408 23.488C7.088 23.8293 6.66133 24 6.128 24C5.616 24 5.2 23.8293 4.88 23.488C4.56 23.1467 4.4 22.72 4.4 22.208V3.552C4.4 2.99733 4.58133 2.53867 4.944 2.176C5.328 1.792 5.79733 1.6 6.352 1.6C6.65067 1.6 6.96 1.664 7.28 1.792C7.6 1.89867 7.83467 2.06933 7.984 2.304L20.176 17.856L19.632 18.24V3.392C19.632 2.88 19.792 2.45333 20.112 2.112C20.432 1.77067 20.8587 1.6 21.392 1.6ZM38.3953 6.56C39.8886 6.56 41.2219 6.944 42.3953 7.712C43.5899 8.45867 44.5286 9.49333 45.2113 10.816C45.9153 12.1387 46.2673 13.6747 46.2673 15.424C46.2673 17.1733 45.9153 18.72 45.2113 20.064C44.5286 21.3867 43.6006 22.432 42.4273 23.2C41.2753 23.9467 39.9739 24.32 38.5233 24.32C37.6699 24.32 36.8699 24.1813 36.1233 23.904C35.3766 23.6267 34.7153 23.2747 34.1393 22.848C33.5846 22.4213 33.1473 21.9947 32.8273 21.568C32.5286 21.12 32.3793 20.7467 32.3793 20.448L33.3713 20.032V22.368C33.3713 22.9227 33.1899 23.392 32.8273 23.776C32.4646 24.1387 32.0059 24.32 31.4513 24.32C30.8966 24.32 30.4379 24.1387 30.0753 23.776C29.7126 23.4133 29.5313 22.944 29.5313 22.368V2.272C29.5313 1.71733 29.7126 1.25867 30.0753 0.895998C30.4379 0.511999 30.8966 0.32 31.4513 0.32C32.0059 0.32 32.4646 0.511999 32.8273 0.895998C33.1899 1.25867 33.3713 1.71733 33.3713 2.272V10.4L32.8273 10.112C32.8273 9.83467 32.9766 9.504 33.2753 9.12C33.5739 8.71467 33.9793 8.32 34.4913 7.936C35.0033 7.53067 35.5899 7.2 36.2513 6.944C36.9339 6.688 37.6486 6.56 38.3953 6.56ZM37.9153 10.08C36.9766 10.08 36.1553 10.3147 35.4513 10.784C34.7473 11.2533 34.1926 11.8933 33.7873 12.704C33.4033 13.4933 33.2113 14.4 33.2113 15.424C33.2113 16.4267 33.4033 17.344 33.7873 18.176C34.1926 18.9867 34.7473 19.6267 35.4513 20.096C36.1553 20.5653 36.9766 20.8 37.9153 20.8C38.8539 20.8 39.6646 20.5653 40.3473 20.096C41.0513 19.6267 41.5953 18.9867 41.9793 18.176C42.3846 17.344 42.5873 16.4267 42.5873 15.424C42.5873 14.4 42.3846 13.4933 41.9793 12.704C41.5953 11.8933 41.0513 11.2533 40.3473 10.784C39.6646 10.3147 38.8539 10.08 37.9153 10.08Z" fill="black"/>
<path d="M61.465 1.6C63.001 1.6 64.3663 1.888 65.561 2.464C66.7557 3.04 67.7583 3.85067 68.569 4.896C69.401 5.92 70.0197 7.11467 70.425 8.48C70.8517 9.824 71.065 11.264 71.065 12.8C71.065 14.8693 70.6917 16.7573 69.945 18.464C69.1983 20.1493 68.1103 21.4933 66.681 22.496C65.273 23.4987 63.5343 24 61.465 24H53.817C53.2623 24 52.793 23.8187 52.409 23.456C52.0463 23.072 51.865 22.6027 51.865 22.048V3.552C51.865 2.99733 52.0463 2.53867 52.409 2.176C52.793 1.792 53.2623 1.6 53.817 1.6H61.465ZM61.145 20.32C62.489 20.32 63.5877 19.9787 64.441 19.296C65.2943 18.592 65.913 17.6747 66.297 16.544C66.7023 15.392 66.905 14.144 66.905 12.8C66.905 11.7973 66.7877 10.848 66.553 9.952C66.3397 9.03467 65.9983 8.23467 65.529 7.552C65.0597 6.848 64.4623 6.29333 63.737 5.888C63.0117 5.48267 62.1477 5.28 61.145 5.28H55.545L55.865 4.992V20.672L55.673 20.32H61.145ZM84.654 24.32C82.8407 24.32 81.262 23.9467 79.918 23.2C78.5953 22.432 77.5713 21.3973 76.846 20.096C76.142 18.7947 75.79 17.3227 75.79 15.68C75.79 13.76 76.174 12.128 76.942 10.784C77.7313 9.41867 78.7553 8.37333 80.014 7.648C81.2727 6.92267 82.606 6.56 84.014 6.56C85.102 6.56 86.126 6.784 87.086 7.232C88.0673 7.68 88.9313 8.29867 89.678 9.088C90.4247 9.856 91.0113 10.752 91.438 11.776C91.886 12.8 92.11 13.888 92.11 15.04C92.0887 15.552 91.886 15.968 91.502 16.288C91.118 16.608 90.67 16.768 90.158 16.768H77.934L76.974 13.568H88.718L88.014 14.208V13.344C87.9713 12.7253 87.7473 12.1707 87.342 11.68C86.958 11.1893 86.4673 10.8053 85.87 10.528C85.294 10.2293 84.6753 10.08 84.014 10.08C83.374 10.08 82.7767 10.1653 82.222 10.336C81.6673 10.5067 81.1873 10.7947 80.782 11.2C80.3767 11.6053 80.0567 12.1493 79.822 12.832C79.5873 13.5147 79.47 14.3787 79.47 15.424C79.47 16.576 79.7047 17.5573 80.174 18.368C80.6647 19.1573 81.2833 19.7653 82.03 20.192C82.798 20.5973 83.6087 20.8 84.462 20.8C85.2513 20.8 85.8807 20.736 86.35 20.608C86.8193 20.48 87.1927 20.3307 87.47 20.16C87.7687 19.968 88.0353 19.808 88.27 19.68C88.654 19.488 89.0167 19.392 89.358 19.392C89.8273 19.392 90.2113 19.552 90.51 19.872C90.83 20.192 90.99 20.5653 90.99 20.992C90.99 21.568 90.6913 22.0907 90.094 22.56C89.5393 23.0293 88.7607 23.4453 87.758 23.808C86.7553 24.1493 85.7207 24.32 84.654 24.32ZM97.9968 6.88C98.4021 6.88 98.7754 6.98667 99.1168 7.2C99.4581 7.392 99.7141 7.69067 99.8848 8.096L104.589 18.848L103.885 19.168L108.685 8.128C109.047 7.27467 109.613 6.86933 110.381 6.912C110.914 6.912 111.341 7.08267 111.661 7.424C112.002 7.744 112.173 8.14933 112.173 8.64C112.173 8.78933 112.141 8.94933 112.077 9.12C112.034 9.29067 111.981 9.45067 111.917 9.6L105.933 22.784C105.591 23.552 105.047 23.9573 104.301 24C103.895 24.064 103.501 23.9893 103.117 23.776C102.754 23.5627 102.477 23.232 102.285 22.784L96.3328 9.6C96.2901 9.49333 96.2368 9.35467 96.1728 9.184C96.1301 9.01333 96.1088 8.81067 96.1088 8.576C96.1088 8.192 96.2794 7.81867 96.6208 7.456C96.9621 7.072 97.4208 6.88 97.9968 6.88Z" fill="#2CAEBA"/>
</g>
<defs>
<filter id="filter0_d_201_4" x="0.4" y="0.320007" width="115.773" height="32" filterUnits="userSpaceOnUse" color-interpolation-filters="sRGB">
<feFlood flood-opacity="0" result="BackgroundImageFix"/>
<feColorMatrix in="SourceAlpha" type="matrix" values="0 0 0 0 0 0 0 0 0 0 0 0 0 0 0 0 0 0 127 0" result="hardAlpha"/>
<feOffset dy="4"/>
<feGaussianBlur stdDeviation="2"/>
<feComposite in2="hardAlpha" operator="out"/>
<feColorMatrix type="matrix" values="0 0 0 0 0 0 0 0 0 0 0 0 0 0 0 0 0 0 0.25 0"/>
<feBlend mode="normal" in2="BackgroundImageFix" result="effect1_dropShadow_201_4"/>
<feBlend mode="normal" in="SourceGraphic" in2="effect1_dropShadow_201_4" result="shape"/>
</filter>
</defs>
</svg>
